<svg width="24" height="25" viewBox="0 0 24 25" fill="none" xmlns="http://www.w3.org/2000/svg">
<path d="M21 20.3508C21 20.9033 20.5525 21.3508 20 21.3508H4C3.4475 21.3508 3 20.9033 3 20.3508V4.35083C3 3.79833 3.4475 3.35083 4 3.35083H20C20.5525 3.35083 21 3.79833 21 4.35083V20.3508Z" fill="url(#paint0_linear_307_316)"/>
<path opacity="0.05" d="M12.5 19.3508V13.8508H10.5V10.8508H12.5V9.7818C12.5 7.2608 13.833 5.8728 16.2525 5.8728C17.25 5.8728 17.791 5.9428 18.0515 5.9768L18.4805 6.0323L18.5 6.4628V8.8508H16.6825C16.1185 8.8508 16 9.5398 16 10.1183V10.8508H18.3615L17.8975 13.8508H16V19.3508H12.5Z" fill="black"/>
<path opacity="0.07" d="M12.75 19.1008V13.6008H10.75V11.1008H12.75V9.7818C12.75 7.3878 13.961 6.1228 16.2525 6.1228C17.238 6.1228 17.7675 6.1918 18.0225 6.2248L18.2405 6.2533L18.2505 6.4743V8.6008H16.683C15.8715 8.6008 15.7505 9.5513 15.7505 10.1183V11.1008H18.0705L17.684 13.6008H15.75V19.1008H12.75Z" fill="black"/>
<path d="M16.6825 8.35081H18V6.47381C17.754 6.44181 17.2345 6.37231 16.2525 6.37231C14.202 6.37231 13 7.41231 13 9.78181V11.3508H11V13.3508H13V18.8508H15.5V13.3508H17.469L17.778 11.3508H15.5V10.1183C15.5 9.18131 15.806 8.35081 16.6825 8.35081Z" fill="white"/>
<defs>
<linearGradient id="paint0_linear_307_316" x1="3.114" y1="2.79883" x2="21.0385" y2="22.0668" gradientUnits="userSpaceOnUse">
<stop stop-color="#0D61A9"/>
<stop offset="1" stop-color="#16528C"/>
</linearGradient>
</defs>
</svg>
