<svg width="24" height="25" viewBox="0 0 24 25" fill="none" xmlns="http://www.w3.org/2000/svg">
<path d="M17.0086 21.3459L7.00862 21.3554C4.80862 21.3574 3.00712 19.5594 3.00462 17.3594L2.99512 7.35945C2.99312 5.15945 4.79112 3.35795 6.99112 3.35545L16.9911 3.34595C19.1911 3.34395 20.9926 5.14195 20.9951 7.34195L21.0046 17.3419C21.0071 19.5424 19.2086 21.3439 17.0086 21.3459Z" fill="url(#paint0_radial_307_309)"/>
<path d="M17.0086 21.3459L7.00862 21.3554C4.80862 21.3574 3.00712 19.5594 3.00462 17.3594L2.99512 7.35945C2.99312 5.15945 4.79112 3.35795 6.99112 3.35545L16.9911 3.34595C19.1911 3.34395 20.9926 5.14195 20.9951 7.34195L21.0046 17.3419C21.0071 19.5424 19.2086 21.3439 17.0086 21.3459Z" fill="url(#paint1_radial_307_309)"/>
<path d="M12 15.8508C10.0705 15.8508 8.5 14.2808 8.5 12.3508C8.5 10.4208 10.0705 8.85083 12 8.85083C13.9295 8.85083 15.5 10.4208 15.5 12.3508C15.5 14.2808 13.9295 15.8508 12 15.8508ZM12 9.85083C10.6215 9.85083 9.5 10.9723 9.5 12.3508C9.5 13.7293 10.6215 14.8508 12 14.8508C13.3785 14.8508 14.5 13.7293 14.5 12.3508C14.5 10.9723 13.3785 9.85083 12 9.85083Z" fill="white"/>
<path d="M15.75 9.35083C16.1642 9.35083 16.5 9.01504 16.5 8.60083C16.5 8.18662 16.1642 7.85083 15.75 7.85083C15.3358 7.85083 15 8.18662 15 8.60083C15 9.01504 15.3358 9.35083 15.75 9.35083Z" fill="white"/>
<path d="M15 18.8508H9C7.0705 18.8508 5.5 17.2808 5.5 15.3508V9.35083C5.5 7.42083 7.0705 5.85083 9 5.85083H15C16.9295 5.85083 18.5 7.42083 18.5 9.35083V15.3508C18.5 17.2808 16.9295 18.8508 15 18.8508ZM9 6.85083C7.6215 6.85083 6.5 7.97233 6.5 9.35083V15.3508C6.5 16.7293 7.6215 17.8508 9 17.8508H15C16.3785 17.8508 17.5 16.7293 17.5 15.3508V9.35083C17.5 7.97233 16.3785 6.85083 15 6.85083H9Z" fill="white"/>
<defs>
<radialGradient id="paint0_radial_307_309" cx="0" cy="0" r="1" gradientUnits="userSpaceOnUse" gradientTransform="translate(9.69012 21.3684) scale(22.4495)">
<stop stop-color="#FFDD55"/>
<stop offset="0.328" stop-color="#FF543F"/>
<stop offset="0.348" stop-color="#FC5245"/>
<stop offset="0.504" stop-color="#E64771"/>
<stop offset="0.643" stop-color="#D53E91"/>
<stop offset="0.761" stop-color="#CC39A4"/>
<stop offset="0.841" stop-color="#C837AB"/>
</radialGradient>
<radialGradient id="paint1_radial_307_309" cx="0" cy="0" r="1" gradientUnits="userSpaceOnUse" gradientTransform="translate(5.89312 3.1211) scale(14.9065 9.9322)">
<stop stop-color="#4168C9"/>
<stop offset="0.999" stop-color="#4168C9" stop-opacity="0"/>
</radialGradient>
</defs>
</svg>
