<svg width="24" height="25" viewBox="0 0 24 25" fill="none" xmlns="http://www.w3.org/2000/svg">
<path d="M12 2.35083C9.34783 2.35083 6.8043 3.4044 4.92893 5.27976C3.05357 7.15513 2 9.69866 2 12.3508C2 15.003 3.05357 17.5465 4.92893 19.4219C6.8043 21.2973 9.34783 22.3508 12 22.3508C14.6522 22.3508 17.1957 21.2973 19.0711 19.4219C20.9464 17.5465 22 15.003 22 12.3508C22 9.69866 20.9464 7.15513 19.0711 5.27976C17.1957 3.4044 14.6522 2.35083 12 2.35083Z" fill="#0288D1"/>
<path d="M7 9.85083H9V17.3508H7V9.85083ZM7.994 8.85083H7.983C7.386 8.85083 7 8.40583 7 7.85033C7 7.28283 7.398 6.85083 8.0055 6.85083C8.614 6.85083 8.9885 7.28283 9 7.85033C9 8.40583 8.614 8.85083 7.994 8.85083ZM17.5 12.6008C17.5 11.0818 16.269 9.85083 14.75 9.85083C13.819 9.85083 12.9975 10.3148 12.5 11.0228V9.85083H10.5V17.3508H12.5V13.3508C12.5 12.5223 13.1715 11.8508 14 11.8508C14.8285 11.8508 15.5 12.5223 15.5 13.3508V17.3508H17.5C17.5 17.3508 17.5 12.8113 17.5 12.6008Z" fill="white"/>
</svg>
