<svg width="24" height="25" viewBox="0 0 24 25" fill="none" xmlns="http://www.w3.org/2000/svg">
<path fill-rule="evenodd" clip-rule="evenodd" d="M2.43408 22.0023L3.78108 17.0848C2.95008 15.6458 2.51308 14.0128 2.51358 12.3403C2.51608 7.10783 6.77408 2.85083 12.0071 2.85083C14.5466 2.85183 16.9296 3.84033 18.7221 5.63383C20.5141 7.42783 21.5011 9.81183 21.5001 12.3478C21.4981 17.5803 17.2391 21.8378 12.0071 21.8378C12.0066 21.8378 12.0071 21.8378 12.0071 21.8378H12.0031C10.4146 21.8373 8.85308 21.4388 7.46658 20.6823L2.43408 22.0023Z" fill="white"/>
<path fill-rule="evenodd" clip-rule="evenodd" d="M2.43386 22.2523C2.36786 22.2523 2.30386 22.2263 2.25636 22.1783C2.19386 22.1148 2.16936 22.0223 2.19286 21.9368L3.51236 17.1188C2.69436 15.6658 2.26286 14.0158 2.26386 12.3408C2.26586 6.96983 6.63636 2.60083 12.0069 2.60083C14.6119 2.60183 17.0594 3.61633 18.8989 5.45733C20.7384 7.29883 21.7509 9.74583 21.7499 12.3478C21.7479 17.7183 17.3769 22.0878 12.0069 22.0878C10.4124 22.0873 8.83486 21.6938 7.43486 20.9493L2.49736 22.2438C2.47636 22.2498 2.45536 22.2523 2.43386 22.2523Z" fill="white"/>
<path fill-rule="evenodd" clip-rule="evenodd" d="M12.0068 2.85083C14.5463 2.85183 16.9293 3.84033 18.7218 5.63383C20.5138 7.42783 21.5008 9.81183 21.4998 12.3478C21.4978 17.5803 17.2388 21.8378 12.0068 21.8378H12.0028C10.4143 21.8373 8.8528 21.4388 7.4663 20.6823L2.4338 22.0023L3.7808 17.0848C2.9498 15.6458 2.5128 14.0128 2.5133 12.3403C2.5158 7.10783 6.7738 2.85083 12.0068 2.85083ZM12.0068 2.35083C6.4988 2.35083 2.0158 6.83183 2.0133 12.3403C2.0128 14.0238 2.4378 15.6828 3.2438 17.1513L1.9513 21.8708C1.9043 22.0433 1.9523 22.2273 2.0783 22.3543C2.1733 22.4503 2.3018 22.5028 2.4338 22.5028C2.4763 22.5028 2.5188 22.4973 2.5608 22.4863L7.4043 21.2163C8.8183 21.9503 10.4033 22.3378 12.0028 22.3383C17.5148 22.3383 21.9978 17.8568 22.0003 12.3483C22.0013 9.67883 20.9628 7.16883 19.0763 5.28083C17.1888 3.39233 14.6783 2.35183 12.0068 2.35083Z" fill="#C4C4C4"/>
<path fill-rule="evenodd" clip-rule="evenodd" d="M17.5882 6.76686C16.0982 5.27586 14.1177 4.45436 12.0097 4.45386C7.65771 4.45386 4.11821 7.99186 4.11621 12.3409C4.11571 13.8314 4.53271 15.2824 5.32271 16.5389L5.51071 16.8374L4.71321 19.7479L7.69971 18.9649L7.98821 19.1359C9.19921 19.8549 10.5882 20.2349 12.0042 20.2354H12.0072C16.3562 20.2354 19.8957 16.6969 19.8972 12.3474C19.8977 10.2399 19.0782 8.25786 17.5882 6.76686Z" fill="#40C351"/>
<path fill-rule="evenodd" clip-rule="evenodd" d="M9.63412 8.37327C9.45662 7.97827 9.26962 7.97027 9.10012 7.96327C8.96162 7.95727 8.80362 7.95777 8.64562 7.95777C8.48762 7.95777 8.23062 8.01727 8.01312 8.25477C7.79562 8.49227 7.18262 9.06577 7.18262 10.2328C7.18262 11.3998 8.03262 12.5278 8.15112 12.6858C8.26962 12.8438 9.79212 15.3153 12.2031 16.2663C14.2066 17.0563 14.6146 16.8993 15.0496 16.8598C15.4846 16.8203 16.4531 16.2863 16.6506 15.7323C16.8481 15.1783 16.8481 14.7038 16.7891 14.6048C16.7296 14.5058 16.5716 14.4468 16.3346 14.3278C16.0976 14.2088 14.9311 13.6353 14.7136 13.5563C14.4961 13.4773 14.3381 13.4378 14.1796 13.6753C14.0216 13.9123 13.5671 14.4468 13.4286 14.6048C13.2901 14.7633 13.1516 14.7833 12.9146 14.6643C12.6776 14.5453 11.9136 14.2953 11.0071 13.4873C10.3021 12.8588 9.82612 12.0823 9.68762 11.8448C9.54912 11.6078 9.67262 11.4793 9.79162 11.3608C9.89812 11.2543 10.0286 11.0838 10.1476 10.9453C10.2661 10.8068 10.3056 10.7078 10.3846 10.5498C10.4636 10.3913 10.4241 10.2528 10.3646 10.1343C10.3061 10.0153 9.84512 8.84227 9.63412 8.37327Z" fill="white"/>
</svg>
